<svg width="291" height="59" viewBox="0 0 291 59" fill="none" xmlns="http://www.w3.org/2000/svg">
<path d="M51.0441 45.944C50.2761 46.424 49.3321 46.792 48.2121 47.048C47.1241 47.304 45.9561 47.432 44.7081 47.432C41.3161 47.432 38.7081 46.6 36.8841 44.936C35.0601 43.272 34.1481 40.792 34.1481 37.496V28.76H30.3561V21.944H34.1481V15.176H43.2681V21.944H49.2201V28.76H43.2681V37.4C43.2681 38.328 43.5081 39.064 43.9881 39.608C44.5001 40.12 45.1721 40.376 46.0041 40.376C47.0601 40.376 47.9881 40.104 48.7881 39.56L51.0441 45.944ZM54.5608 20.984H63.6808V47H54.5608V20.984ZM59.1208 18.104C57.4568 18.104 56.1128 17.64 55.0888 16.712C54.0648 15.784 53.5528 14.632 53.5528 13.256C53.5528 11.88 54.0648 10.728 55.0888 9.8C56.1128 8.872 57.4568 8.408 59.1208 8.408C60.7848 8.408 62.1288 8.856 63.1528 9.752C64.1768 10.616 64.6888 11.736 64.6888 13.112C64.6888 14.552 64.1768 15.752 63.1528 16.712C62.1288 17.64 60.7848 18.104 59.1208 18.104ZM82.9037 47.432C80.0237 47.432 77.4477 46.856 75.1757 45.704C72.9037 44.552 71.1277 42.952 69.8477 40.904C68.5997 38.856 67.9757 36.536 67.9757 33.944C67.9757 31.352 68.5997 29.048 69.8477 27.032C71.1277 24.984 72.9037 23.4 75.1757 22.28C77.4477 21.128 80.0237 20.552 82.9037 20.552C85.8477 20.552 88.3917 21.192 90.5357 22.472C92.6797 23.72 94.1997 25.464 95.0957 27.704L88.0397 31.304C86.8557 28.968 85.1277 27.8 82.8557 27.8C81.2237 27.8 79.8637 28.344 78.7757 29.432C77.7197 30.52 77.1917 32.024 77.1917 33.944C77.1917 35.896 77.7197 37.432 78.7757 38.552C79.8637 39.64 81.2237 40.184 82.8557 40.184C85.1277 40.184 86.8557 39.016 88.0397 36.68L95.0957 40.28C94.1997 42.52 92.6797 44.28 90.5357 45.56C88.3917 46.808 85.8477 47.432 82.9037 47.432ZM116.903 45.944C116.135 46.424 115.191 46.792 114.071 47.048C112.983 47.304 111.815 47.432 110.567 47.432C107.175 47.432 104.567 46.6 102.743 44.936C100.919 43.272 100.007 40.792 100.007 37.496V28.76H96.2154V21.944H100.007V15.176H109.127V21.944H115.079V28.76H109.127V37.4C109.127 38.328 109.367 39.064 109.847 39.608C110.359 40.12 111.031 40.376 111.863 40.376C112.919 40.376 113.847 40.104 114.647 39.56L116.903 45.944ZM131.508 20.552C135.828 20.552 139.124 21.544 141.396 23.528C143.668 25.48 144.804 28.488 144.804 32.552V47H136.308V43.64C134.996 46.168 132.436 47.432 128.628 47.432C126.612 47.432 124.868 47.08 123.396 46.376C121.924 45.672 120.804 44.728 120.036 43.544C119.3 42.328 118.932 40.952 118.932 39.416C118.932 36.952 119.876 35.048 121.764 33.704C123.652 32.328 126.564 31.64 130.5 31.64H135.684C135.524 28.888 133.684 27.512 130.164 27.512C128.916 27.512 127.652 27.72 126.372 28.136C125.092 28.52 124.004 29.064 123.108 29.768L120.036 23.576C121.476 22.616 123.22 21.88 125.268 21.368C127.348 20.824 129.428 20.552 131.508 20.552ZM131.172 41.672C132.228 41.672 133.156 41.416 133.956 40.904C134.756 40.392 135.332 39.64 135.684 38.648V36.392H131.748C129.092 36.392 127.764 37.272 127.764 39.032C127.764 39.832 128.068 40.472 128.676 40.952C129.284 41.432 130.116 41.672 131.172 41.672ZM164.232 47.432C161.352 47.432 158.776 46.856 156.504 45.704C154.232 44.552 152.456 42.952 151.176 40.904C149.928 38.856 149.304 36.536 149.304 33.944C149.304 31.352 149.928 29.048 151.176 27.032C152.456 24.984 154.232 23.4 156.504 22.28C158.776 21.128 161.352 20.552 164.232 20.552C167.176 20.552 169.72 21.192 171.864 22.472C174.008 23.72 175.528 25.464 176.424 27.704L169.368 31.304C168.184 28.968 166.456 27.8 164.184 27.8C162.552 27.8 161.192 28.344 160.104 29.432C159.048 30.52 158.52 32.024 158.52 33.944C158.52 35.896 159.048 37.432 160.104 38.552C161.192 39.64 162.552 40.184 164.184 40.184C166.456 40.184 168.184 39.016 169.368 36.68L176.424 40.28C175.528 42.52 174.008 44.28 171.864 45.56C169.72 46.808 167.176 47.432 164.232 47.432ZM198.232 45.944C197.464 46.424 196.52 46.792 195.4 47.048C194.312 47.304 193.144 47.432 191.896 47.432C188.504 47.432 185.896 46.6 184.072 44.936C182.248 43.272 181.336 40.792 181.336 37.496V28.76H177.544V21.944H181.336V15.176H190.456V21.944H196.408V28.76H190.456V37.4C190.456 38.328 190.696 39.064 191.176 39.608C191.688 40.12 192.36 40.376 193.192 40.376C194.248 40.376 195.176 40.104 195.976 39.56L198.232 45.944ZM214.054 47.432C211.27 47.432 208.758 46.856 206.518 45.704C204.278 44.552 202.518 42.952 201.238 40.904C199.99 38.856 199.366 36.536 199.366 33.944C199.366 31.384 199.99 29.08 201.238 27.032C202.518 24.984 204.262 23.4 206.47 22.28C208.71 21.128 211.238 20.552 214.054 20.552C216.87 20.552 219.398 21.128 221.638 22.28C223.878 23.4 225.622 24.984 226.87 27.032C228.118 29.048 228.742 31.352 228.742 33.944C228.742 36.536 228.118 38.856 226.87 40.904C225.622 42.952 223.878 44.552 221.638 45.704C219.398 46.856 216.87 47.432 214.054 47.432ZM214.054 40.184C215.654 40.184 216.966 39.64 217.99 38.552C219.014 37.432 219.526 35.896 219.526 33.944C219.526 32.024 219.014 30.52 217.99 29.432C216.966 28.344 215.654 27.8 214.054 27.8C212.454 27.8 211.142 28.344 210.118 29.432C209.094 30.52 208.582 32.024 208.582 33.944C208.582 35.896 209.094 37.432 210.118 38.552C211.142 39.64 212.454 40.184 214.054 40.184ZM259.559 34.04C259.559 34.104 259.511 34.856 259.415 36.296H240.503C240.887 37.64 241.623 38.68 242.711 39.416C243.831 40.12 245.223 40.472 246.887 40.472C248.135 40.472 249.207 40.296 250.103 39.944C251.031 39.592 251.959 39.016 252.887 38.216L257.687 43.208C255.159 46.024 251.463 47.432 246.599 47.432C243.559 47.432 240.887 46.856 238.583 45.704C236.279 44.552 234.487 42.952 233.207 40.904C231.959 38.856 231.335 36.536 231.335 33.944C231.335 31.384 231.943 29.096 233.159 27.08C234.407 25.032 236.119 23.432 238.295 22.28C240.471 21.128 242.919 20.552 245.639 20.552C248.231 20.552 250.583 21.096 252.695 22.184C254.807 23.24 256.471 24.792 257.687 26.84C258.935 28.856 259.559 31.256 259.559 34.04ZM245.687 27.032C244.279 27.032 243.095 27.432 242.135 28.232C241.207 29.032 240.615 30.12 240.359 31.496H251.015C250.759 30.12 250.151 29.032 249.191 28.232C248.263 27.432 247.095 27.032 245.687 27.032Z" fill="#1C1C1C"/>
<circle cx="10" cy="10" r="10" fill="#DB3A34"/>
<path d="M271 38L289 56M271 56L289 38" stroke="#177E89" stroke-width="5"/>
</svg>
